<svg xmlns="http://www.w3.org/2000/svg" viewBox="0 0 800 500" width="800" height="500">
<defs>
<linearGradient id="bg" x1="0" y1="0" x2="1" y2="1"><stop offset="0" stop-color="#0a1f2c"/><stop offset="1" stop-color="#0f3b42"/></linearGradient>
<radialGradient id="glow" cx="0.78" cy="0.18" r="0.7"><stop offset="0" stop-color="#3fd3bf" stop-opacity="0.22"/><stop offset="1" stop-color="#3fd3bf" stop-opacity="0"/></radialGradient>
<pattern id="dots" width="24" height="24" patternUnits="userSpaceOnUse"><circle cx="2" cy="2" r="1" fill="#ffffff" fill-opacity="0.07"/></pattern>
</defs>
<rect width="800" height="500" fill="url(#bg)"/>
<rect width="800" height="500" fill="url(#glow)"/>
<rect width="800" height="500" fill="url(#dots)"/>
<text x="70" y="88" font-family="ui-monospace, SFMono-Regular, Menlo, Consolas, monospace" font-size="12" fill="#8d93b8" text-anchor="start" font-weight="500" letter-spacing="1.2">cohort retention</text>
<rect x="70" y="110" width="33" height="33" rx="4" fill="#3fd3bf" fill-opacity="0.98"/>
<rect x="106" y="110" width="33" height="33" rx="4" fill="#3fd3bf" fill-opacity="0.60"/>
<rect x="142" y="110" width="33" height="33" rx="4" fill="#3fd3bf" fill-opacity="0.47"/>
<rect x="178" y="110" width="33" height="33" rx="4" fill="#3fd3bf" fill-opacity="0.37"/>
<rect x="214" y="110" width="33" height="33" rx="4" fill="#3fd3bf" fill-opacity="0.31"/>
<rect x="250" y="110" width="33" height="33" rx="4" fill="#3fd3bf" fill-opacity="0.26"/>
<rect x="286" y="110" width="33" height="33" rx="4" fill="#3fd3bf" fill-opacity="0.22"/>
<rect x="322" y="110" width="33" height="33" rx="4" fill="#3fd3bf" fill-opacity="0.19"/>
<rect x="70" y="146" width="33" height="33" rx="4" fill="#3fd3bf" fill-opacity="0.98"/>
<rect x="106" y="146" width="33" height="33" rx="4" fill="#3fd3bf" fill-opacity="0.55"/>
<rect x="142" y="146" width="33" height="33" rx="4" fill="#3fd3bf" fill-opacity="0.42"/>
<rect x="178" y="146" width="33" height="33" rx="4" fill="#3fd3bf" fill-opacity="0.33"/>
<rect x="214" y="146" width="33" height="33" rx="4" fill="#3fd3bf" fill-opacity="0.26"/>
<rect x="250" y="146" width="33" height="33" rx="4" fill="#3fd3bf" fill-opacity="0.21"/>
<rect x="286" y="146" width="33" height="33" rx="4" fill="#3fd3bf" fill-opacity="0.18"/>
<rect x="70" y="182" width="33" height="33" rx="4" fill="#3fd3bf" fill-opacity="0.98"/>
<rect x="106" y="182" width="33" height="33" rx="4" fill="#3fd3bf" fill-opacity="0.55"/>
<rect x="142" y="182" width="33" height="33" rx="4" fill="#3fd3bf" fill-opacity="0.42"/>
<rect x="178" y="182" width="33" height="33" rx="4" fill="#3fd3bf" fill-opacity="0.33"/>
<rect x="214" y="182" width="33" height="33" rx="4" fill="#3fd3bf" fill-opacity="0.26"/>
<rect x="250" y="182" width="33" height="33" rx="4" fill="#3fd3bf" fill-opacity="0.21"/>
<rect x="70" y="218" width="33" height="33" rx="4" fill="#3fd3bf" fill-opacity="0.98"/>
<rect x="106" y="218" width="33" height="33" rx="4" fill="#3fd3bf" fill-opacity="0.60"/>
<rect x="142" y="218" width="33" height="33" rx="4" fill="#3fd3bf" fill-opacity="0.47"/>
<rect x="178" y="218" width="33" height="33" rx="4" fill="#3fd3bf" fill-opacity="0.37"/>
<rect x="214" y="218" width="33" height="33" rx="4" fill="#3fd3bf" fill-opacity="0.31"/>
<rect x="70" y="254" width="33" height="33" rx="4" fill="#3fd3bf" fill-opacity="0.98"/>
<rect x="106" y="254" width="33" height="33" rx="4" fill="#3fd3bf" fill-opacity="0.55"/>
<rect x="142" y="254" width="33" height="33" rx="4" fill="#3fd3bf" fill-opacity="0.42"/>
<rect x="178" y="254" width="33" height="33" rx="4" fill="#3fd3bf" fill-opacity="0.33"/>
<rect x="70" y="290" width="33" height="33" rx="4" fill="#3fd3bf" fill-opacity="0.98"/>
<rect x="106" y="290" width="33" height="33" rx="4" fill="#3fd3bf" fill-opacity="0.55"/>
<rect x="142" y="290" width="33" height="33" rx="4" fill="#3fd3bf" fill-opacity="0.42"/>
<rect x="70" y="326" width="33" height="33" rx="4" fill="#3fd3bf" fill-opacity="0.98"/>
<rect x="106" y="326" width="33" height="33" rx="4" fill="#3fd3bf" fill-opacity="0.60"/>
<rect x="70" y="362" width="33" height="33" rx="4" fill="#3fd3bf" fill-opacity="0.98"/>
<text x="420" y="88" font-family="ui-monospace, SFMono-Regular, Menlo, Consolas, monospace" font-size="12" fill="#8d93b8" text-anchor="start" font-weight="500" letter-spacing="1.2">price forecast</text>
<rect x="420" y="110" width="320" height="180" rx="10" fill="#ffffff" fill-opacity="0.03" stroke="rgba(255,255,255,0.08)"/>
<path d="M430.0,252.5 L433.2,250.3 L436.5,248.6 L439.7,248.3 L443.0,250.3 L446.2,247.2 L449.5,243.9 L452.7,243.3 L456.0,242.8 L459.2,244.6 L462.5,248.6 L465.7,249.3 L469.0,248.0 L472.2,251.4 L475.4,248.2 L478.7,250.2 L481.9,252.1 L485.2,255.7 L488.4,250.7 L491.7,248.1 L494.9,244.2 L498.2,242.6 L501.4,246.3 L504.7,247.4 L507.9,246.9 L511.2,249.8 L514.4,245.3 L517.7,246.0 L520.9,248.6 L524.1,245.2 L527.4,248.1 L530.6,243.7 L533.9,243.7 L537.1,242.7 L540.4,243.6 L543.6,243.2 L546.9,245.6 L550.1,249.2 L553.4,245.4 L556.6,247.3 L559.9,244.3 L563.1,246.4 L566.3,241.7 L569.6,237.7 L572.8,234.9 L576.1,232.0 L579.3,230.8 L582.6,228.2 L585.8,231.1 L589.1,230.8 L592.3,227.4 L595.6,229.6 L598.8,225.3 L602.1,221.3 L605.3,221.6 L608.6,222.3 L611.8,222.2 L615.0,222.8 L618.3,217.8 L621.5,218.3 L624.8,222.1 L628.0,225.2 L631.3,222.8 L634.5,217.8 L637.8,217.4 L641.0,217.0 L644.3,216.0 L647.5,213.3 L650.8,215.3 L654.0,213.8" fill="none" stroke="#e9ebf7" stroke-opacity="0.8" stroke-width="2"/>
<path d="M654.0,207.8 L664.0,205.1 L674.0,200.1 L684.0,192.6 L694.0,184.7 L704.0,178.9 L714.0,175.8 L724.0,173.4 L734.0,169.2 L734.0,229.2 L724.0,227.4 L714.0,223.8 L704.0,220.9 L694.0,220.7 L684.0,222.6 L674.0,224.1 L664.0,223.1 L654.0,219.8 Z" fill="#ffc164" fill-opacity="0.18"/>
<path d="M654.0,213.8 L664.0,214.1 L674.0,212.1 L684.0,207.6 L694.0,202.7 L704.0,199.9 L714.0,199.8 L724.0,200.4 L734.0,199.2" fill="none" stroke="#ffc164" stroke-width="2.4"/>
<ellipse cx="520" cy="350" rx="48" ry="12" fill="#0b1a26" stroke="#3fd3bf" stroke-width="1.6"/>
<ellipse cx="520" cy="376" rx="48" ry="12" fill="#0b1a26" stroke="#3fd3bf" stroke-width="1.6"/>
<ellipse cx="520" cy="402" rx="48" ry="12" fill="#0b1a26" stroke="#3fd3bf" stroke-width="1.6"/>
<line x1="472" y1="350" x2="472" y2="402" stroke="#3fd3bf" stroke-width="1.6"/>
<line x1="568" y1="350" x2="568" y2="402" stroke="#3fd3bf" stroke-width="1.6"/>
<text x="590" y="382" font-family="ui-monospace, SFMono-Regular, Menlo, Consolas, monospace" font-size="12" fill="#8d93b8" text-anchor="start" font-weight="500" letter-spacing="1.2">PostgreSQL · PostGIS</text>
</svg>
