<svg xmlns="http://www.w3.org/2000/svg" viewBox="0 0 800 500" width="800" height="500">
<defs>
<linearGradient id="bg" x1="0" y1="0" x2="1" y2="1"><stop offset="0" stop-color="#0a1f2c"/><stop offset="1" stop-color="#0f3b42"/></linearGradient>
<radialGradient id="glow" cx="0.78" cy="0.18" r="0.7"><stop offset="0" stop-color="#3fd3bf" stop-opacity="0.22"/><stop offset="1" stop-color="#3fd3bf" stop-opacity="0"/></radialGradient>
<pattern id="dots" width="24" height="24" patternUnits="userSpaceOnUse"><circle cx="2" cy="2" r="1" fill="#ffffff" fill-opacity="0.07"/></pattern>
</defs>
<rect width="800" height="500" fill="url(#bg)"/>
<rect width="800" height="500" fill="url(#glow)"/>
<rect width="800" height="500" fill="url(#dots)"/>
<defs><marker id="ar" viewBox="0 0 10 10" refX="8" refY="5" markerWidth="7" markerHeight="7" orient="auto"><path d="M0,0 L10,5 L0,10 z" fill="#e9ebf7" fill-opacity="0.6"/></marker></defs>
<rect x="70" y="60" width="200" height="380" rx="30" fill="#0c1a24" stroke="#e9ebf7" stroke-opacity="0.6" stroke-width="2.5"/>
<rect x="140.0" y="74" width="60" height="8" rx="4" fill="#e9ebf7" fill-opacity="0.35"/>
<line x1="231.3" y1="223.6" x2="213.8" y2="236.6" stroke="#3fd3bf" stroke-opacity="0.35" stroke-width="1"/>
<line x1="231.3" y1="223.6" x2="213.4" y2="210.6" stroke="#3fd3bf" stroke-opacity="0.35" stroke-width="1"/>
<line x1="231.3" y1="223.6" x2="228.9" y2="251.3" stroke="#3fd3bf" stroke-opacity="0.35" stroke-width="1"/>
<line x1="228.9" y1="251.3" x2="213.8" y2="236.6" stroke="#3fd3bf" stroke-opacity="0.35" stroke-width="1"/>
<line x1="228.9" y1="251.3" x2="204.3" y2="261.6" stroke="#3fd3bf" stroke-opacity="0.35" stroke-width="1"/>
<line x1="228.9" y1="251.3" x2="231.3" y2="223.6" stroke="#3fd3bf" stroke-opacity="0.35" stroke-width="1"/>
<line x1="217.6" y1="277.2" x2="204.3" y2="261.6" stroke="#3fd3bf" stroke-opacity="0.35" stroke-width="1"/>
<line x1="217.6" y1="277.2" x2="199.2" y2="296.0" stroke="#3fd3bf" stroke-opacity="0.35" stroke-width="1"/>
<line x1="217.6" y1="277.2" x2="189.9" y2="277.6" stroke="#3fd3bf" stroke-opacity="0.35" stroke-width="1"/>
<line x1="199.2" y1="296.0" x2="189.9" y2="277.6" stroke="#3fd3bf" stroke-opacity="0.35" stroke-width="1"/>
<line x1="199.2" y1="296.0" x2="178.9" y2="305.5" stroke="#3fd3bf" stroke-opacity="0.35" stroke-width="1"/>
<line x1="199.2" y1="296.0" x2="217.6" y2="277.2" stroke="#3fd3bf" stroke-opacity="0.35" stroke-width="1"/>
<line x1="178.9" y1="305.5" x2="172.3" y2="285.8" stroke="#3fd3bf" stroke-opacity="0.35" stroke-width="1"/>
<line x1="178.9" y1="305.5" x2="157.5" y2="304.1" stroke="#3fd3bf" stroke-opacity="0.35" stroke-width="1"/>
<line x1="178.9" y1="305.5" x2="199.2" y2="296.0" stroke="#3fd3bf" stroke-opacity="0.35" stroke-width="1"/>
<line x1="157.5" y1="304.1" x2="138.7" y2="297.3" stroke="#3fd3bf" stroke-opacity="0.35" stroke-width="1"/>
<line x1="157.5" y1="304.1" x2="178.9" y2="305.5" stroke="#3fd3bf" stroke-opacity="0.35" stroke-width="1"/>
<line x1="157.5" y1="304.1" x2="172.3" y2="285.8" stroke="#3fd3bf" stroke-opacity="0.35" stroke-width="1"/>
<line x1="138.7" y1="297.3" x2="157.5" y2="304.1" stroke="#3fd3bf" stroke-opacity="0.35" stroke-width="1"/>
<line x1="138.7" y1="297.3" x2="150.9" y2="280.0" stroke="#3fd3bf" stroke-opacity="0.35" stroke-width="1"/>
<line x1="138.7" y1="297.3" x2="121.0" y2="276.6" stroke="#3fd3bf" stroke-opacity="0.35" stroke-width="1"/>
<line x1="121.0" y1="276.6" x2="136.4" y2="265.0" stroke="#3fd3bf" stroke-opacity="0.35" stroke-width="1"/>
<line x1="121.0" y1="276.6" x2="112.2" y2="254.8" stroke="#3fd3bf" stroke-opacity="0.35" stroke-width="1"/>
<line x1="121.0" y1="276.6" x2="138.7" y2="297.3" stroke="#3fd3bf" stroke-opacity="0.35" stroke-width="1"/>
<line x1="112.2" y1="254.8" x2="128.3" y2="238.9" stroke="#3fd3bf" stroke-opacity="0.35" stroke-width="1"/>
<line x1="112.2" y1="254.8" x2="121.0" y2="276.6" stroke="#3fd3bf" stroke-opacity="0.35" stroke-width="1"/>
<line x1="112.2" y1="254.8" x2="136.4" y2="265.0" stroke="#3fd3bf" stroke-opacity="0.35" stroke-width="1"/>
<line x1="108.3" y1="224.6" x2="128.8" y2="211.6" stroke="#3fd3bf" stroke-opacity="0.35" stroke-width="1"/>
<line x1="108.3" y1="224.6" x2="128.3" y2="238.9" stroke="#3fd3bf" stroke-opacity="0.35" stroke-width="1"/>
<line x1="108.3" y1="224.6" x2="113.6" y2="195.1" stroke="#3fd3bf" stroke-opacity="0.35" stroke-width="1"/>
<line x1="113.6" y1="195.1" x2="134.6" y2="189.8" stroke="#3fd3bf" stroke-opacity="0.35" stroke-width="1"/>
<line x1="113.6" y1="195.1" x2="128.8" y2="211.6" stroke="#3fd3bf" stroke-opacity="0.35" stroke-width="1"/>
<line x1="113.6" y1="195.1" x2="123.9" y2="171.4" stroke="#3fd3bf" stroke-opacity="0.35" stroke-width="1"/>
<line x1="123.9" y1="171.4" x2="134.6" y2="189.8" stroke="#3fd3bf" stroke-opacity="0.35" stroke-width="1"/>
<line x1="123.9" y1="171.4" x2="137.6" y2="152.5" stroke="#3fd3bf" stroke-opacity="0.35" stroke-width="1"/>
<line x1="123.9" y1="171.4" x2="148.6" y2="171.5" stroke="#3fd3bf" stroke-opacity="0.35" stroke-width="1"/>
<line x1="137.6" y1="152.5" x2="158.5" y2="145.5" stroke="#3fd3bf" stroke-opacity="0.35" stroke-width="1"/>
<line x1="137.6" y1="152.5" x2="148.6" y2="171.5" stroke="#3fd3bf" stroke-opacity="0.35" stroke-width="1"/>
<line x1="137.6" y1="152.5" x2="123.9" y2="171.4" stroke="#3fd3bf" stroke-opacity="0.35" stroke-width="1"/>
<line x1="158.5" y1="145.5" x2="179.5" y2="144.6" stroke="#3fd3bf" stroke-opacity="0.35" stroke-width="1"/>
<line x1="158.5" y1="145.5" x2="167.1" y2="165.7" stroke="#3fd3bf" stroke-opacity="0.35" stroke-width="1"/>
<line x1="158.5" y1="145.5" x2="137.6" y2="152.5" stroke="#3fd3bf" stroke-opacity="0.35" stroke-width="1"/>
<line x1="179.5" y1="144.6" x2="158.5" y2="145.5" stroke="#3fd3bf" stroke-opacity="0.35" stroke-width="1"/>
<line x1="179.5" y1="144.6" x2="201.6" y2="153.5" stroke="#3fd3bf" stroke-opacity="0.35" stroke-width="1"/>
<line x1="179.5" y1="144.6" x2="167.1" y2="165.7" stroke="#3fd3bf" stroke-opacity="0.35" stroke-width="1"/>
<line x1="201.6" y1="153.5" x2="189.2" y2="170.6" stroke="#3fd3bf" stroke-opacity="0.35" stroke-width="1"/>
<line x1="201.6" y1="153.5" x2="217.7" y2="170.5" stroke="#3fd3bf" stroke-opacity="0.35" stroke-width="1"/>
<line x1="201.6" y1="153.5" x2="179.5" y2="144.6" stroke="#3fd3bf" stroke-opacity="0.35" stroke-width="1"/>
<line x1="217.7" y1="170.5" x2="205.2" y2="185.7" stroke="#3fd3bf" stroke-opacity="0.35" stroke-width="1"/>
<line x1="217.7" y1="170.5" x2="201.6" y2="153.5" stroke="#3fd3bf" stroke-opacity="0.35" stroke-width="1"/>
<line x1="217.7" y1="170.5" x2="226.5" y2="195.8" stroke="#3fd3bf" stroke-opacity="0.35" stroke-width="1"/>
<line x1="226.5" y1="195.8" x2="213.4" y2="210.6" stroke="#3fd3bf" stroke-opacity="0.35" stroke-width="1"/>
<line x1="226.5" y1="195.8" x2="205.2" y2="185.7" stroke="#3fd3bf" stroke-opacity="0.35" stroke-width="1"/>
<line x1="226.5" y1="195.8" x2="217.7" y2="170.5" stroke="#3fd3bf" stroke-opacity="0.35" stroke-width="1"/>
<line x1="213.8" y1="236.6" x2="228.9" y2="251.3" stroke="#3fd3bf" stroke-opacity="0.35" stroke-width="1"/>
<line x1="213.8" y1="236.6" x2="192.4" y2="238.1" stroke="#3fd3bf" stroke-opacity="0.35" stroke-width="1"/>
<line x1="213.8" y1="236.6" x2="231.3" y2="223.6" stroke="#3fd3bf" stroke-opacity="0.35" stroke-width="1"/>
<line x1="204.3" y1="261.6" x2="217.6" y2="277.2" stroke="#3fd3bf" stroke-opacity="0.35" stroke-width="1"/>
<line x1="204.3" y1="261.6" x2="189.9" y2="277.6" stroke="#3fd3bf" stroke-opacity="0.35" stroke-width="1"/>
<line x1="204.3" y1="261.6" x2="182.3" y2="257.1" stroke="#3fd3bf" stroke-opacity="0.35" stroke-width="1"/>
<line x1="189.9" y1="277.6" x2="172.3" y2="285.8" stroke="#3fd3bf" stroke-opacity="0.35" stroke-width="1"/>
<line x1="189.9" y1="277.6" x2="199.2" y2="296.0" stroke="#3fd3bf" stroke-opacity="0.35" stroke-width="1"/>
<line x1="189.9" y1="277.6" x2="204.3" y2="261.6" stroke="#3fd3bf" stroke-opacity="0.35" stroke-width="1"/>
<line x1="172.3" y1="285.8" x2="189.9" y2="277.6" stroke="#3fd3bf" stroke-opacity="0.35" stroke-width="1"/>
<line x1="172.3" y1="285.8" x2="178.9" y2="305.5" stroke="#3fd3bf" stroke-opacity="0.35" stroke-width="1"/>
<line x1="172.3" y1="285.8" x2="150.9" y2="280.0" stroke="#3fd3bf" stroke-opacity="0.35" stroke-width="1"/>
<line x1="150.9" y1="280.0" x2="136.4" y2="265.0" stroke="#3fd3bf" stroke-opacity="0.35" stroke-width="1"/>
<line x1="150.9" y1="280.0" x2="138.7" y2="297.3" stroke="#3fd3bf" stroke-opacity="0.35" stroke-width="1"/>
<line x1="150.9" y1="280.0" x2="172.3" y2="285.8" stroke="#3fd3bf" stroke-opacity="0.35" stroke-width="1"/>
<line x1="136.4" y1="265.0" x2="121.0" y2="276.6" stroke="#3fd3bf" stroke-opacity="0.35" stroke-width="1"/>
<line x1="136.4" y1="265.0" x2="150.9" y2="280.0" stroke="#3fd3bf" stroke-opacity="0.35" stroke-width="1"/>
<line x1="136.4" y1="265.0" x2="149.1" y2="246.3" stroke="#3fd3bf" stroke-opacity="0.35" stroke-width="1"/>
<line x1="128.3" y1="238.9" x2="149.1" y2="246.3" stroke="#3fd3bf" stroke-opacity="0.35" stroke-width="1"/>
<line x1="128.3" y1="238.9" x2="112.2" y2="254.8" stroke="#3fd3bf" stroke-opacity="0.35" stroke-width="1"/>
<line x1="128.3" y1="238.9" x2="146.6" y2="225.2" stroke="#3fd3bf" stroke-opacity="0.35" stroke-width="1"/>
<line x1="128.8" y1="211.6" x2="113.6" y2="195.1" stroke="#3fd3bf" stroke-opacity="0.35" stroke-width="1"/>
<line x1="128.8" y1="211.6" x2="146.6" y2="225.2" stroke="#3fd3bf" stroke-opacity="0.35" stroke-width="1"/>
<line x1="128.8" y1="211.6" x2="134.6" y2="189.8" stroke="#3fd3bf" stroke-opacity="0.35" stroke-width="1"/>
<line x1="134.6" y1="189.8" x2="123.9" y2="171.4" stroke="#3fd3bf" stroke-opacity="0.35" stroke-width="1"/>
<line x1="134.6" y1="189.8" x2="113.6" y2="195.1" stroke="#3fd3bf" stroke-opacity="0.35" stroke-width="1"/>
<line x1="134.6" y1="189.8" x2="153.7" y2="201.0" stroke="#3fd3bf" stroke-opacity="0.35" stroke-width="1"/>
<line x1="148.6" y1="171.5" x2="167.1" y2="165.7" stroke="#3fd3bf" stroke-opacity="0.35" stroke-width="1"/>
<line x1="148.6" y1="171.5" x2="137.6" y2="152.5" stroke="#3fd3bf" stroke-opacity="0.35" stroke-width="1"/>
<line x1="148.6" y1="171.5" x2="134.6" y2="189.8" stroke="#3fd3bf" stroke-opacity="0.35" stroke-width="1"/>
<line x1="167.1" y1="165.7" x2="148.6" y2="171.5" stroke="#3fd3bf" stroke-opacity="0.35" stroke-width="1"/>
<line x1="167.1" y1="165.7" x2="158.5" y2="145.5" stroke="#3fd3bf" stroke-opacity="0.35" stroke-width="1"/>
<line x1="167.1" y1="165.7" x2="189.2" y2="170.6" stroke="#3fd3bf" stroke-opacity="0.35" stroke-width="1"/>
<line x1="189.2" y1="170.6" x2="201.6" y2="153.5" stroke="#3fd3bf" stroke-opacity="0.35" stroke-width="1"/>
<line x1="189.2" y1="170.6" x2="205.2" y2="185.7" stroke="#3fd3bf" stroke-opacity="0.35" stroke-width="1"/>
<line x1="189.2" y1="170.6" x2="167.1" y2="165.7" stroke="#3fd3bf" stroke-opacity="0.35" stroke-width="1"/>
<line x1="205.2" y1="185.7" x2="217.7" y2="170.5" stroke="#3fd3bf" stroke-opacity="0.35" stroke-width="1"/>
<line x1="205.2" y1="185.7" x2="189.2" y2="170.6" stroke="#3fd3bf" stroke-opacity="0.35" stroke-width="1"/>
<line x1="205.2" y1="185.7" x2="226.5" y2="195.8" stroke="#3fd3bf" stroke-opacity="0.35" stroke-width="1"/>
<line x1="213.4" y1="210.6" x2="226.5" y2="195.8" stroke="#3fd3bf" stroke-opacity="0.35" stroke-width="1"/>
<line x1="213.4" y1="210.6" x2="191.6" y2="213.5" stroke="#3fd3bf" stroke-opacity="0.35" stroke-width="1"/>
<line x1="213.4" y1="210.6" x2="231.3" y2="223.6" stroke="#3fd3bf" stroke-opacity="0.35" stroke-width="1"/>
<line x1="192.4" y1="238.1" x2="213.8" y2="236.6" stroke="#3fd3bf" stroke-opacity="0.35" stroke-width="1"/>
<line x1="192.4" y1="238.1" x2="182.3" y2="257.1" stroke="#3fd3bf" stroke-opacity="0.35" stroke-width="1"/>
<line x1="192.4" y1="238.1" x2="191.6" y2="213.5" stroke="#3fd3bf" stroke-opacity="0.35" stroke-width="1"/>
<line x1="182.3" y1="257.1" x2="164.5" y2="258.8" stroke="#3fd3bf" stroke-opacity="0.35" stroke-width="1"/>
<line x1="182.3" y1="257.1" x2="192.4" y2="238.1" stroke="#3fd3bf" stroke-opacity="0.35" stroke-width="1"/>
<line x1="182.3" y1="257.1" x2="189.9" y2="277.6" stroke="#3fd3bf" stroke-opacity="0.35" stroke-width="1"/>
<line x1="164.5" y1="258.8" x2="182.3" y2="257.1" stroke="#3fd3bf" stroke-opacity="0.35" stroke-width="1"/>
<line x1="164.5" y1="258.8" x2="149.1" y2="246.3" stroke="#3fd3bf" stroke-opacity="0.35" stroke-width="1"/>
<line x1="164.5" y1="258.8" x2="150.9" y2="280.0" stroke="#3fd3bf" stroke-opacity="0.35" stroke-width="1"/>
<line x1="149.1" y1="246.3" x2="164.5" y2="258.8" stroke="#3fd3bf" stroke-opacity="0.35" stroke-width="1"/>
<line x1="149.1" y1="246.3" x2="146.6" y2="225.2" stroke="#3fd3bf" stroke-opacity="0.35" stroke-width="1"/>
<line x1="149.1" y1="246.3" x2="128.3" y2="238.9" stroke="#3fd3bf" stroke-opacity="0.35" stroke-width="1"/>
<line x1="146.6" y1="225.2" x2="149.1" y2="246.3" stroke="#3fd3bf" stroke-opacity="0.35" stroke-width="1"/>
<line x1="146.6" y1="225.2" x2="128.8" y2="211.6" stroke="#3fd3bf" stroke-opacity="0.35" stroke-width="1"/>
<line x1="146.6" y1="225.2" x2="128.3" y2="238.9" stroke="#3fd3bf" stroke-opacity="0.35" stroke-width="1"/>
<line x1="153.7" y1="201.0" x2="166.6" y2="191.9" stroke="#3fd3bf" stroke-opacity="0.35" stroke-width="1"/>
<line x1="153.7" y1="201.0" x2="134.6" y2="189.8" stroke="#3fd3bf" stroke-opacity="0.35" stroke-width="1"/>
<line x1="153.7" y1="201.0" x2="146.6" y2="225.2" stroke="#3fd3bf" stroke-opacity="0.35" stroke-width="1"/>
<line x1="166.6" y1="191.9" x2="181.1" y2="196.3" stroke="#3fd3bf" stroke-opacity="0.35" stroke-width="1"/>
<line x1="166.6" y1="191.9" x2="153.7" y2="201.0" stroke="#3fd3bf" stroke-opacity="0.35" stroke-width="1"/>
<line x1="166.6" y1="191.9" x2="167.1" y2="165.7" stroke="#3fd3bf" stroke-opacity="0.35" stroke-width="1"/>
<line x1="181.1" y1="196.3" x2="166.6" y2="191.9" stroke="#3fd3bf" stroke-opacity="0.35" stroke-width="1"/>
<line x1="181.1" y1="196.3" x2="191.6" y2="213.5" stroke="#3fd3bf" stroke-opacity="0.35" stroke-width="1"/>
<line x1="181.1" y1="196.3" x2="205.2" y2="185.7" stroke="#3fd3bf" stroke-opacity="0.35" stroke-width="1"/>
<line x1="191.6" y1="213.5" x2="181.1" y2="196.3" stroke="#3fd3bf" stroke-opacity="0.35" stroke-width="1"/>
<line x1="191.6" y1="213.5" x2="213.4" y2="210.6" stroke="#3fd3bf" stroke-opacity="0.35" stroke-width="1"/>
<line x1="191.6" y1="213.5" x2="170.0" y2="225.0" stroke="#3fd3bf" stroke-opacity="0.35" stroke-width="1"/>
<line x1="170.0" y1="225.0" x2="146.6" y2="225.2" stroke="#3fd3bf" stroke-opacity="0.35" stroke-width="1"/>
<line x1="170.0" y1="225.0" x2="191.6" y2="213.5" stroke="#3fd3bf" stroke-opacity="0.35" stroke-width="1"/>
<line x1="170.0" y1="225.0" x2="192.4" y2="238.1" stroke="#3fd3bf" stroke-opacity="0.35" stroke-width="1"/>
<circle cx="231.3" cy="223.6" r="2.6" fill="#3fd3bf"/>
<circle cx="228.9" cy="251.3" r="2.6" fill="#3fd3bf"/>
<circle cx="217.6" cy="277.2" r="2.6" fill="#3fd3bf"/>
<circle cx="199.2" cy="296.0" r="2.6" fill="#3fd3bf"/>
<circle cx="178.9" cy="305.5" r="2.6" fill="#3fd3bf"/>
<circle cx="157.5" cy="304.1" r="2.6" fill="#3fd3bf"/>
<circle cx="138.7" cy="297.3" r="2.6" fill="#3fd3bf"/>
<circle cx="121.0" cy="276.6" r="2.6" fill="#3fd3bf"/>
<circle cx="112.2" cy="254.8" r="2.6" fill="#3fd3bf"/>
<circle cx="108.3" cy="224.6" r="2.6" fill="#3fd3bf"/>
<circle cx="113.6" cy="195.1" r="2.6" fill="#3fd3bf"/>
<circle cx="123.9" cy="171.4" r="2.6" fill="#3fd3bf"/>
<circle cx="137.6" cy="152.5" r="2.6" fill="#3fd3bf"/>
<circle cx="158.5" cy="145.5" r="2.6" fill="#3fd3bf"/>
<circle cx="179.5" cy="144.6" r="2.6" fill="#3fd3bf"/>
<circle cx="201.6" cy="153.5" r="2.6" fill="#3fd3bf"/>
<circle cx="217.7" cy="170.5" r="2.6" fill="#3fd3bf"/>
<circle cx="226.5" cy="195.8" r="2.6" fill="#3fd3bf"/>
<circle cx="213.8" cy="236.6" r="2.6" fill="#3fd3bf"/>
<circle cx="204.3" cy="261.6" r="2.6" fill="#3fd3bf"/>
<circle cx="189.9" cy="277.6" r="2.6" fill="#3fd3bf"/>
<circle cx="172.3" cy="285.8" r="2.6" fill="#3fd3bf"/>
<circle cx="150.9" cy="280.0" r="2.6" fill="#3fd3bf"/>
<circle cx="136.4" cy="265.0" r="2.6" fill="#3fd3bf"/>
<circle cx="128.3" cy="238.9" r="2.6" fill="#3fd3bf"/>
<circle cx="128.8" cy="211.6" r="2.6" fill="#3fd3bf"/>
<circle cx="134.6" cy="189.8" r="2.6" fill="#3fd3bf"/>
<circle cx="148.6" cy="171.5" r="2.6" fill="#3fd3bf"/>
<circle cx="167.1" cy="165.7" r="2.6" fill="#3fd3bf"/>
<circle cx="189.2" cy="170.6" r="2.6" fill="#3fd3bf"/>
<circle cx="205.2" cy="185.7" r="2.6" fill="#3fd3bf"/>
<circle cx="213.4" cy="210.6" r="2.6" fill="#3fd3bf"/>
<circle cx="192.4" cy="238.1" r="2.6" fill="#3fd3bf"/>
<circle cx="182.3" cy="257.1" r="2.6" fill="#3fd3bf"/>
<circle cx="164.5" cy="258.8" r="2.6" fill="#3fd3bf"/>
<circle cx="149.1" cy="246.3" r="2.6" fill="#3fd3bf"/>
<circle cx="146.6" cy="225.2" r="2.6" fill="#3fd3bf"/>
<circle cx="153.7" cy="201.0" r="2.6" fill="#3fd3bf"/>
<circle cx="166.6" cy="191.9" r="2.6" fill="#3fd3bf"/>
<circle cx="181.1" cy="196.3" r="2.6" fill="#3fd3bf"/>
<circle cx="191.6" cy="213.5" r="2.6" fill="#3fd3bf"/>
<circle cx="170.0" cy="225.0" r="2.6" fill="#3fd3bf"/>
<circle cx="140.0" cy="265" r="7" fill="none" stroke="#ffc164" stroke-width="2"/>
<circle cx="200.0" cy="271" r="7" fill="none" stroke="#ffc164" stroke-width="2"/>
<path d="M90.0,370.0 L92.0,370.0 L94.1,370.0 L96.1,370.0 L98.1,370.0 L100.1,370.0 L102.2,370.0 L104.2,370.0 L106.2,370.0 L108.2,370.0 L110.3,370.0 L112.3,370.0 L114.3,370.0 L116.3,370.0 L118.4,369.9 L120.4,368.7 L122.4,359.6 L124.4,342.5 L126.5,347.6 L128.5,370.3 L130.5,379.0 L132.5,374.2 L134.6,370.6 L136.6,370.0 L138.6,370.0 L140.6,370.0 L142.7,370.0 L144.7,370.0 L146.7,370.0 L148.7,370.0 L150.8,370.0 L152.8,370.0 L154.8,370.0 L156.8,370.0 L158.9,370.0 L160.9,370.0 L162.9,370.0 L164.9,370.0 L167.0,370.0 L169.0,370.0 L171.0,370.0 L173.0,368.9 L175.1,360.7 L177.1,343.3 L179.1,346.2 L181.1,369.0 L183.2,379.0 L185.2,374.6 L187.2,370.7 L189.2,370.0 L191.3,370.0 L193.3,370.0 L195.3,370.0 L197.3,370.0 L199.4,370.0 L201.4,370.0 L203.4,370.0 L205.4,370.0 L207.5,370.0 L209.5,370.0 L211.5,370.0 L213.5,370.0 L215.6,370.0 L217.6,370.0 L219.6,370.0 L221.6,370.0 L223.7,370.0 L225.7,369.1 L227.7,361.7 L229.7,344.3 L231.8,345.0 L233.8,367.6 L235.8,379.0 L237.8,375.0 L239.9,370.8 L241.9,370.0 L243.9,370.0 L245.9,370.0 L248.0,370.0 L250.0,370.0" fill="none" stroke="#ff8f80" stroke-width="2.2"/>
<text x="90" y="414" font-family="ui-monospace, SFMono-Regular, Menlo, Consolas, monospace" font-size="12" fill="#ff8f80" text-anchor="start" font-weight="500" letter-spacing="0.4">HR 112 bpm</text>
<rect x="320" y="150" width="150" height="70" rx="12" fill="#3fd3bf" fill-opacity="0.12" stroke="#3fd3bf" stroke-width="1.6"/><text x="395.0" y="183.0" font-family="ui-monospace, SFMono-Regular, Menlo, Consolas, monospace" font-size="14" fill="#e9ebf7" text-anchor="middle" font-weight="600" letter-spacing="0.5">FastAPI</text><text x="395.0" y="203.0" font-family="ui-monospace, SFMono-Regular, Menlo, Consolas, monospace" font-size="11" fill="#8d93b8" text-anchor="middle" font-weight="500" letter-spacing="0.4">stream ingest</text>
<rect x="320" y="280" width="150" height="70" rx="12" fill="#a397ff" fill-opacity="0.12" stroke="#a397ff" stroke-width="1.6"/><text x="395.0" y="313.0" font-family="ui-monospace, SFMono-Regular, Menlo, Consolas, monospace" font-size="14" fill="#e9ebf7" text-anchor="middle" font-weight="600" letter-spacing="0.5">Gemini</text><text x="395.0" y="333.0" font-family="ui-monospace, SFMono-Regular, Menlo, Consolas, monospace" font-size="11" fill="#8d93b8" text-anchor="middle" font-weight="500" letter-spacing="0.4">guideline-grounded</text>
<line x1="272" y1="220" x2="316" y2="190" stroke="#e9ebf7" stroke-opacity="0.5" stroke-width="1.6" marker-end="url(#ar)"/>
<line x1="395" y1="224" x2="395" y2="276" stroke="#e9ebf7" stroke-opacity="0.5" stroke-width="1.6" marker-end="url(#ar)"/>
<line x1="474" y1="315" x2="540" y2="260" stroke="#e9ebf7" stroke-opacity="0.5" stroke-width="1.6" marker-end="url(#ar)"/>
<rect x="545" y="110" width="215" height="290" rx="14" fill="#ffffff" fill-opacity="0.05" stroke="#e9ebf7" stroke-opacity="0.3"/>
<text x="563" y="140" font-family="ui-monospace, SFMono-Regular, Menlo, Consolas, monospace" font-size="11" fill="#8d93b8" text-anchor="start" font-weight="500" letter-spacing="1.2">TRIAGE</text>
<path d="M582.5,260.0 A70,70 0 0 1 722.5,260.0" fill="none" stroke="#ffffff" stroke-opacity="0.1" stroke-width="12" stroke-linecap="round"/>
<path d="M582.5,260.0 A70,70 0 0 1 707.7,216.9" fill="none" stroke="#ff8f80" stroke-width="12" stroke-linecap="round"/>
<text x="652.5" y="252" font-family="ui-monospace, SFMono-Regular, Menlo, Consolas, monospace" font-size="20" fill="#ff8f80" text-anchor="middle" font-weight="700" letter-spacing="1.2">HIGH</text>
<text x="652.5" y="274" font-family="ui-monospace, SFMono-Regular, Menlo, Consolas, monospace" font-size="11" fill="#8d93b8" text-anchor="middle" font-weight="500" letter-spacing="0.4">risk score 0.79</text>
<rect x="565" y="310" width="175" height="8" rx="4" fill="#ffffff" fill-opacity="0.08"/>
<rect x="565" y="310" width="150" height="8" rx="4" fill="#ff8f80"/>
<rect x="565" y="334" width="175" height="8" rx="4" fill="#ffffff" fill-opacity="0.08"/>
<rect x="565" y="334" width="96" height="8" rx="4" fill="#ffc164"/>
<rect x="565" y="358" width="175" height="8" rx="4" fill="#ffffff" fill-opacity="0.08"/>
<rect x="565" y="358" width="60" height="8" rx="4" fill="#3fd3bf"/>
</svg>
